<svg width="110" height="35" viewBox="0 0 110 35" fill="none" xmlns="http://www.w3.org/2000/svg">
<g clip-path="url(#clip0_4:989)">
<path d="M57.9728 8.62305C57.9728 9.85992 56.9761 10.8559 55.7393 10.8559C54.5024 10.8559 53.5064 9.85992 53.5064 8.62305C53.5064 7.38618 54.4684 6.39023 55.7393 6.39023C57.0111 6.42455 57.9728 7.42085 57.9728 8.62305ZM48.7656 13.1237V13.6735C48.7656 13.6735 47.701 12.2986 45.4335 12.2986C41.6893 12.2986 38.7687 15.1502 38.7687 19.1007C38.7687 23.0173 41.655 25.9028 45.4335 25.9028C47.7353 25.9028 48.7656 24.4944 48.7656 24.4944V25.0781C48.7656 25.353 48.9722 25.5586 49.2467 25.5586H52.029V12.6412H49.2467C48.9722 12.6422 48.7656 12.8831 48.7656 13.1237ZM48.7656 21.4025C48.2508 22.1586 47.2198 22.8113 45.9833 22.8113C43.7848 22.8113 42.1011 21.4372 42.1011 19.1007C42.1011 16.7646 43.7848 15.3905 45.9833 15.3905C47.1859 15.3905 48.2851 16.0775 48.7656 16.7989V21.4025ZM54.0906 12.6422H57.3883V25.5596H54.0906V12.6422ZM103.354 12.2983C101.087 12.2983 100.021 13.6731 100.021 13.6731V6.42455H96.7237V25.5596H99.5067C99.7816 25.5596 99.9872 25.3191 99.9872 25.0785V24.4947C99.9872 24.4947 101.052 25.9032 103.319 25.9032C107.064 25.9032 109.984 23.0183 109.984 19.1018C109.984 15.1852 107.064 12.2983 103.354 12.2983ZM102.804 22.7767C101.533 22.7767 100.537 22.1246 100.021 21.3682V16.7646C100.537 16.0775 101.636 15.3562 102.804 15.3562C105.003 15.3562 106.686 16.7303 106.686 19.0664C106.686 21.4025 105.003 22.7767 102.804 22.7767ZM95.0064 17.8989V25.594H91.708V18.2764C91.708 16.1469 91.0209 15.2875 89.167 15.2875C88.171 15.2875 87.14 15.803 86.4863 16.559V25.56H83.1892V12.6425H85.7992C86.0741 12.6425 86.2804 12.8831 86.2804 13.1237V13.6735C87.2423 12.6769 88.5132 12.2986 89.784 12.2986C91.2271 12.2986 92.4297 12.7115 93.3917 13.5359C94.5592 14.4978 95.0064 15.7344 95.0064 17.8989ZM75.1836 12.2983C72.9168 12.2983 71.8515 13.6731 71.8515 13.6731V6.42455H68.5538V25.5596H71.336C71.6109 25.5596 71.8172 25.3191 71.8172 25.0785V24.4947C71.8172 24.4947 72.8824 25.9032 75.1492 25.9032C78.8941 25.9032 81.814 23.0183 81.814 19.1018C81.8484 15.1849 78.9285 12.2983 75.1836 12.2983ZM74.6338 22.7767C73.3629 22.7767 72.367 22.1246 71.8515 21.3682V16.7646C72.367 16.0775 73.4662 15.3562 74.6338 15.3562C76.8329 15.3562 78.5159 16.7303 78.5159 19.0664C78.5159 21.4025 76.8329 22.7767 74.6338 22.7767ZM65.7022 12.2983C66.6981 12.2983 67.2136 12.4706 67.2136 12.4706V15.5278C67.2136 15.5278 64.4653 14.6001 62.748 16.5587V25.5936H59.4495V12.6422H62.2325C62.5074 12.6422 62.7129 12.8828 62.7129 13.1233V13.6731C63.3321 12.9514 64.6719 12.2983 65.7022 12.2983ZM31.4518 24.3914C31.2802 23.9792 31.1083 23.5327 30.9367 23.1545C30.6614 22.5364 30.3866 21.952 30.1467 21.4025L30.1123 21.3682C27.7416 16.2148 25.1999 10.9935 22.5199 5.84079L22.4169 5.63418C22.135 5.09964 21.8603 4.56136 21.5929 4.01946C21.249 3.40068 20.9058 2.74861 20.356 2.12983C19.2568 0.755688 17.6764 -0.000366211 15.9934 -0.000366211C14.2753 -0.000366211 12.7296 0.755692 11.5964 2.06086C11.0809 2.67895 10.7027 3.3317 10.3595 3.95048C10.0914 4.49204 9.81671 5.03032 9.53551 5.5652L9.43221 5.7718C6.78687 10.9245 4.21052 16.1462 1.84009 21.2992L1.80543 21.3675C1.56519 21.918 1.28995 22.5018 1.01505 23.1195C0.843456 23.4977 0.671859 23.9099 0.500263 24.3564C0.0534252 25.6272 -0.0842018 26.8298 0.0880811 28.067C0.465937 30.6437 2.18328 32.8072 4.55405 33.7698C5.44739 34.148 6.37504 34.3196 7.33666 34.3196C7.61156 34.3196 7.95476 34.2853 8.23001 34.2507C9.36392 34.1134 10.5318 33.7359 11.6657 33.0831C13.0742 32.2927 14.414 31.1595 15.9254 29.5105C17.4368 31.1595 18.811 32.2927 20.1851 33.0831C21.3194 33.7359 22.4869 34.1134 23.6205 34.2507C23.8954 34.2857 24.2393 34.3196 24.5142 34.3196C25.4761 34.3196 26.4378 34.148 27.2964 33.7698C29.7015 32.8072 31.3846 30.6094 31.7628 28.067C32.0356 26.8648 31.8983 25.6629 31.4518 24.3914ZM15.9587 26.1777C14.1034 23.8416 12.9009 21.6431 12.489 19.7885C12.3174 18.9981 12.2828 18.3111 12.3861 17.6926C12.4544 17.1428 12.661 16.6617 12.9359 16.2495C13.5886 15.3225 14.6879 14.7381 15.9591 14.7381C17.2306 14.7381 18.3642 15.2879 18.9826 16.2495C19.2575 16.6617 19.4634 17.1432 19.5327 17.6926C19.6353 18.3114 19.601 19.0324 19.4294 19.7885C19.0159 21.6088 17.8133 23.8076 15.9587 26.1777ZM29.6652 27.7925C29.4249 29.5788 28.2224 31.1252 26.5394 31.8123C25.715 32.1554 24.8213 32.2588 23.9287 32.1554C23.07 32.0522 22.2107 31.7773 21.318 31.2625C20.0811 30.5747 18.8446 29.5105 17.4015 27.9297C19.6686 25.1475 21.0428 22.6047 21.5583 20.338C21.7988 19.2727 21.8335 18.3111 21.7299 17.4174C21.5929 16.5587 21.2833 15.7683 20.8025 15.0813C19.7369 13.5348 17.9503 12.6422 15.9584 12.6422C13.9665 12.6422 12.1798 13.5698 11.1149 15.0813C10.6341 15.7683 10.3245 16.5587 10.1872 17.4174C10.0499 18.3111 10.0839 19.307 10.3588 20.338C10.874 22.6047 12.2824 25.1814 14.5152 27.9641C13.1068 29.5445 11.8356 30.6097 10.5987 31.2968C9.70539 31.8123 8.84706 32.0872 7.98839 32.1898C7.06109 32.2931 6.16741 32.1555 5.37738 31.8466C3.69436 31.1595 2.49181 29.6131 2.25158 27.8268C2.14862 26.9681 2.21691 26.1094 2.56079 25.1475C2.66341 24.8036 2.83569 24.4604 3.00729 24.0482C3.24786 23.4984 3.52208 22.914 3.79732 22.3302L3.83198 22.2619C6.20208 17.1428 8.74411 11.9211 11.3894 6.83707L11.4924 6.63047C11.7676 6.11568 12.0425 5.56589 12.3171 5.05041C12.592 4.50062 12.9009 3.98514 13.2791 3.5383C14.0004 2.71464 14.9621 2.26745 16.0273 2.26745C17.0926 2.26745 18.0543 2.71464 18.7756 3.5383C19.1538 3.98617 19.4627 4.50164 19.7376 5.05041C20.0128 5.56589 20.2877 6.11568 20.562 6.63047L20.6653 6.83707C23.2703 11.9423 25.7785 17.0962 28.1887 22.2962V22.3305C28.464 22.881 28.7042 23.4988 28.9791 24.0492C29.1507 24.4607 29.3226 24.8039 29.4256 25.1478C29.6998 26.0401 29.8028 26.8995 29.6652 27.7925Z" fill="#FF385C"/>
</g>
<defs>
<clipPath id="clip0_4:989">
<rect width="110" height="34.32" fill="white"/>
</clipPath>
</defs>
</svg>
